<svg xmlns="http://www.w3.org/2000/svg" version="1.1" xmlns:xlink="http://www.w3.org/1999/xlink" xmlns:svgjs="http://svgjs.dev/svgjs" width="1440" height="560" preserveAspectRatio="none" viewBox="0 0 1440 560"><g mask="url(&quot;#SvgjsMask1021&quot;)" fill="none"><rect width="1440" height="560" x="0" y="0" fill="rgba(255, 255, 255, 1)"></rect><path d="M0,569.153C111.283,566.997,216.682,540.245,318.925,496.257C438.13,444.971,574.064,403.801,641.719,293.063C711.462,178.908,711.22,32.488,682.021,-98.06C654.013,-223.284,572.747,-326.852,482.635,-418.205C396.961,-505.059,298.236,-584.307,178.636,-608.378C63.62,-631.526,-48.342,-581.065,-160.822,-547.709C-272.985,-514.447,-399.797,-501.214,-477.537,-413.788C-555.552,-326.053,-559.906,-199.092,-574.411,-82.588C-588.662,31.875,-605.474,149.77,-560.95,256.177C-515.732,364.241,-429.264,451.694,-326.966,508.77C-228.179,563.887,-113.102,571.344,0,569.153" fill="#cccccc"></path><path d="M1440 942.601C1515.477 944.451 1592.175 936.297 1657.463 898.379 1724.413 859.496 1778.066 799.486 1808.784 728.418 1839.154 658.155 1824.21 580.7 1827.8220000000001 504.24 1832.392 407.499 1879.942 304.233 1832.819 219.62099999999998 1784.629 133.09300000000002 1683.328 75.46100000000001 1584.604 67.52499999999998 1489.763 59.90100000000001 1412.938 135.892 1328.143 179.051 1259.784 213.84500000000003 1196.257 249.34199999999998 1135.473 296.126 1059.699 354.448 959.2860000000001 395.889 928.71 486.488 897.195 579.869 915.629 693.604 974.703 772.494 1031.703 848.614 1139.968 855.231 1229.282 887.883 1298.848 913.315 1365.953 940.7860000000001 1440 942.601" fill="#ffffff"></path></g><defs><mask id="SvgjsMask1021"><rect width="1440" height="560" fill="#ffffff"></rect></mask></defs></svg>